# xmcd
#
# Track frame offsets:
#	187
#	18022
#	35365
#	58840
#	76660
#	96000
#	117030
#	135967
#	155915
#	177380
#	198157
#
# Disc length: 2801 seconds
#
# Revision: 1
# Processed by: cddbd v1.5.1PL0 Copyright (c) Steve Scherf et al.
# Submitted via: CDex 1.50Beta5
#
DISCID=7e0aef0b
DTITLE=チエ・カジウラ - CONFUSION
DYEAR=1996
DGENRE=Rock
TTITLE0=この森へ←
TTITLE1=inside my brain
TTITLE2=→シロとクロ←
TTITLE3=しゃぼんだま
TTITLE4=love letter
TTITLE5=dear FLOWER
TTITLE6=かたまり
TTITLE7=***届くほど高く↑***
TTITLE8=矢印
TTITLE9=僕は?
TTITLE10=目をとじて…
EXTD=
EXTT0=
EXTT1=
EXTT2=
EXTT3=
EXTT4=
EXTT5=
EXTT6=
EXTT7=
EXTT8=
EXTT9=
EXTT10=
PLAYORDER=
